<svg height="511pt" viewBox="0 0 511.80439 511" width="511pt" xmlns="http://www.w3.org/2000/svg"><path d="m368.152344 308.660156-41.578125 50.054688-32.488281-23.921875 41.578124-50.140625 27.878907-11.328125zm0 0" fill="#bdc3c7"/><path d="m399.753906 188.078125c-.972656-.089844-1.855468-.089844-2.738281-.089844-35.308594 0-123.585937 17.65625-141.238281 17.65625-17.65625 0 0-26.484375 0-79.449219 0-52.964843-26.484375-61.792968-26.484375-61.792968 17.984375-.410156 35.820312-3.378906 52.964843-8.828125 26.484376-8.828125 79.449219 17.65625 52.964844-26.480469-26.480468-44.140625-44.136718-26.484375-79.445312-17.65625-43.742188 8.542969-87.960938 14.441406-132.414063 17.65625-8.828125 0-26.484375 17.652344 0 44.136719 26.480469 26.480469 70.621094 0 70.621094 0 4.992187 20.25 7.949219 40.953125 8.824219 61.792969 0 10.414062 1.414062 40.253906 2.472656 76.359374.101562 4.167969-2.675781 7.855469-6.707031 8.914063-50.589844 12.796875-102.484375 19.730469-154.660157 20.65625-88.277343 0-17.65625 70.621094-8.828124 70.621094 8.828124 0 35.3125-26.480469 79.449218-26.480469 27.519532-2.089844 54.648438-7.785156 80.683594-16.949219 2.660156-.839843 5.5625-.367187 7.820312 1.265625 2.261719 1.632813 3.617188 4.242188 3.65625 7.03125.8125 32.359375-.484374 64.734375-3.886718 96.925782-4.558594 43.292968-4.378906 86.953124.53125 130.207031.445312 3.929687 3.449218 7.082031 7.351562 7.71875s7.75-1.398438 9.421875-4.980469c4.765625-10.683594 8.207031-32.75 18.007813-62.324219 3.335937-10.398437 5.789062-21.058593 7.328125-31.867187l1.675781-13.859375c4.679688-45.726563-.175781-95.957031-.175781-121.996094 0-33.988281 65.5-35.222656 117.671875-35.3125l56.054687 3.53125c31.777344 3.265625 55.789063 5.472656 55.789063-12.359375 0-11.828125-8.828125-21.890625-21.714844-29.394531zm0 0" fill="#2c2f38"/><path d="m511.777344 112.511719c-1.203125 14.503906-6.667969 28.324219-15.714844 39.726562l-127.910156 156.421875-32.488282-24.007812 111.671876-168.34375c13.238281-17.921875 37.164062-36.898438 55.082031-23.65625 6.230469 4.648437 9.742187 12.09375 9.359375 19.859375zm0 0" fill="#e64c3c"/><path d="m336.460938 385.550781c-13.285157 23.371094-39.5 36.253907-66.121094 32.484375-16.179688-2.296875-31.832032-7.40625-46.253906-15.09375 7.308593 1.679688 14.984374.414063 21.363281-3.53125 6.304687-3.929687 11.140625-9.824218 13.769531-16.773437 4.503906-11.386719 3.355469-24.277344 7.589844-35.664063 5.109375-13.464844 17.097656-23.121094 31.339844-25.242187 14.246093-2.125 28.527343 3.613281 37.339843 15.003906 10.925781 14.320313 11.320313 34.070313.972657 48.816406zm0 0" fill="#805333"/><g fill="#2c2f38"><path d="m295.828125 154.886719c4.472656-14.601563 9.25-37.617188 0-49.9375-2.59375-3.851563-1.890625-9.03125 1.632813-12.050781 8.757812-8.007813 25.777343-15.703126 46.300781 15.078124 23.699219 35.554688-13.242188 52.441407-37.394531 58.011719-3.074219.746094-6.308594-.207031-8.484376-2.5-2.175781-2.292969-2.960937-5.574219-2.054687-8.601562zm0 0"/><path d="m163.625 153.765625c-5.632812-3.726563-14.167969-3.046875-19.890625-7.230469-5.425781-5.097656-9.667969-11.324218-12.425781-18.238281-3.886719-7.777344-12.476563-22.707031-23.484375-18.113281-7.378907 3.078125-8.914063 11.246094-10.132813 18.261718-2.046875 11.820313-6.179687 22.953126-8.570312 34.65625-4.257813 20.765626 4.070312 35.460938 25.777344 39.082032 16.820312 4.03125 34.429687-2.351563 44.761718-16.226563 4.617188-6.847656 11.832032-17.929687 8.449219-26.5625-.855469-2.304687-2.425781-4.277343-4.484375-5.628906zm0 0"/></g></svg>