<svg height="512" viewBox="0 0 512 512" width="512" xmlns="http://www.w3.org/2000/svg"><path d="m456 80h-203.736l79.928-49.187a8 8 0 0 0 -8.384-13.626l-99.808 61.419-99.808-61.419a8 8 0 0 0 -8.384 13.626l79.928 49.187h-139.736a40.045 40.045 0 0 0 -40 40v336a40.045 40.045 0 0 0 40 40h400a40.045 40.045 0 0 0 40-40v-336a40.045 40.045 0 0 0 -40-40zm24 352h-96v-144h96zm0-160h-96v-136a8 8 0 0 0 -8-8h-304a8 8 0 0 0 -8 8v304a8 8 0 0 0 8 8h408v8a24.028 24.028 0 0 1 -24 24h-400a24.028 24.028 0 0 1 -24-24v-336a24.028 24.028 0 0 1 24-24h400a24.028 24.028 0 0 1 24 24zm-112-128v288h-288v-288z"/><path d="m432 112a32 32 0 1 0 32 32 32.036 32.036 0 0 0 -32-32zm0 48a16 16 0 1 1 16-16 16.019 16.019 0 0 1 -16 16z"/><path d="m432 192a32 32 0 1 0 32 32 32.036 32.036 0 0 0 -32-32zm0 48a16 16 0 1 1 16-16 16.019 16.019 0 0 1 -16 16z"/><path d="m408 304h16v16h-16z"/><path d="m408 336h16v16h-16z"/><path d="m408 368h16v16h-16z"/><path d="m408 400h16v16h-16z"/><path d="m440 304h16v16h-16z"/><path d="m440 336h16v16h-16z"/><path d="m440 368h16v16h-16z"/><path d="m440 400h16v16h-16z"/><path d="m192 400a79.885 79.885 0 0 0 60.516-27.669 48 48 0 1 0 63.818-63.786 80 80 0 1 0 -138.978-67.178 79.368 79.368 0 0 0 -16.52 4.954c-.242.1-.482.2-.717.325a79.989 79.989 0 0 0 31.881 153.354zm77.525-30.015a31.833 31.833 0 0 1 -5.49-19.192 102.053 102.053 0 0 1 21.309 31.369 31.832 31.832 0 0 1 -15.819-12.177zm44.453 8.49a31.82 31.82 0 0 1 -11.025 4.754 118.12 118.12 0 0 0 -33.422-49.2q.4-.594.833-1.172a8.049 8.049 0 0 0 .787-1.017 31.9 31.9 0 0 1 17.888-11.063 118.123 118.123 0 0 0 33.422 49.2 31.825 31.825 0 0 1 -8.483 8.498zm8.489-44.453a31.831 31.831 0 0 1 5.49 19.193 102.112 102.112 0 0 1 -21.309-31.369 31.83 31.83 0 0 1 15.819 12.176zm-12.356-43.828a48.706 48.706 0 0 1 -13.429-26.194h22.805a63.585 63.585 0 0 1 -9.376 26.194zm-.036-68.362a63.551 63.551 0 0 1 9.407 26.168h-22.8a47.274 47.274 0 0 1 5.649-15.914 47.971 47.971 0 0 1 7.744-10.254zm-46.075-29.314a63.8 63.8 0 0 1 35.863 16.941 64.737 64.737 0 0 0 -19.363 38.541h-16.5zm0 71.482h16.5a64.766 64.766 0 0 0 19.364 38.573q-.812.762-1.649 1.5a47.728 47.728 0 0 0 -26.77 6.69 79.366 79.366 0 0 0 -7.45-25.61zm-129.943 83.141a63.518 63.518 0 0 1 -4.924-15.206l9.995-3.268 6.291 6.412-1.317 8.828zm65.943 36.359a63.123 63.123 0 0 1 -16-.018v-10.538l8-4 8 4zm-15.545-61.142 2.834-8.721h9.17l2.834 8.721-7.419 5.39zm31.545 56.975v-11.333a8 8 0 0 0 -4.422-7.155l-11.606-5.8-.072-13.345 10.1-7.338 12.924 4.119 1.973 12.82a8 8 0 0 0 5.438 6.392l10.679 3.465a63.965 63.965 0 0 1 -25.014 18.175zm32.324-32.627-8.367-2.715-1.361-8.847 6.276-6.4 7.839 2.563a48.321 48.321 0 0 0 -4.387 15.399zm.8-55.518a63.5 63.5 0 0 1 6.7 24.307l-10.7-3.5a7.994 7.994 0 0 0 -8.2 2l-9.083 9.257-12.761-4.067-3.838-11.813 7.941-11.062 12.77 2.138a8.114 8.114 0 0 0 1.322.11 8 8 0 0 0 6.472-3.3l6.57-9.044q1.219 1.954 2.3 4a8.127 8.127 0 0 0 .503.974zm-32.386-18.8 6.127-8.434a64.319 64.319 0 0 1 12.973 9.478l-6.116 8.42-8.852-1.482zm31.262-79.878v55.49h-16.5a64.827 64.827 0 0 0 -19.4-38.61 63.839 63.839 0 0 1 35.9-16.88zm-46.131 29.268a48.73 48.73 0 0 1 12.383 21.4 79.629 79.629 0 0 0 -20.252-3.127 63.525 63.525 0 0 1 7.869-18.273zm-9.869 34.222a63.875 63.875 0 0 1 15.479 1.9l-6.591 9.074a8 8 0 0 0 -.632 8.378l5.982 11.559-7.7 10.722h-12.659l-7.944-10.805 5.961-11.46a8 8 0 0 0 -.627-8.4l-6.621-9.1a63.911 63.911 0 0 1 15.352-1.868zm-8.1 85.729.075 13.341-11.55 5.775a8 8 0 0 0 -4.425 7.155v11.313a64.279 64.279 0 0 1 -25.027-18.234l10.759-3.464a8 8 0 0 0 5.46-6.433l1.915-12.826 12.466-4.128zm-22.659-77.829 6.176 8.486-4.113 7.906-8.85 1.483-6.136-8.485a64.338 64.338 0 0 1 12.923-9.39zm-23.448 22.141 6.6 9.132a8 8 0 0 0 7.8 3.2l12.784-2.141 7.723 10.5-3.977 12.242-12.6 4.173-9.059-9.232a8 8 0 0 0 -8.2-2l-10.691 3.5a63.548 63.548 0 0 1 9.62-29.378z"/><path d="m96 160h16v16h-16z"/><path d="m96 192h16v16h-16z"/><path d="m96 224h16v16h-16z"/></svg>