<svg height="512pt" viewBox="0 0 512 512" width="512pt" xmlns="http://www.w3.org/2000/svg"><path d="m67.5 307.5h377c33.136719 0 60-26.863281 60-60v-137.371094c0-23.140625-13.328125-44.183594-34.203125-54.175781-64.886719-31.058594-137.558594-48.453125-214.296875-48.453125s-149.410156 17.394531-214.296875 48.453125c-20.875 9.992187-34.203125 31.035156-34.203125 54.179687v137.367188c0 33.136719 26.863281 60 60 60zm0 0" fill="#9ea2a3"/><path d="m127.5 241.5v-151.105469c0-25.457031 14.660156-48.605469 37.621094-59.59375 17.039062-8.15625 34.566406-15.445312 52.523437-21.828125-62.605469 4.777344-121.96875 21.148438-175.941406 46.980469-20.875 9.992187-34.203125 31.035156-34.203125 54.175781v137.371094c0 33.136719 26.863281 60 60 60h126c-36.449219 0-66-29.550781-66-66zm0 0" fill="#82888b"/><path d="m67.5 277.5c-16.542969 0-30-13.457031-30-30v-137.371094c0-11.484375 6.734375-22.128906 17.152344-27.117187 63.097656-30.199219 130.839844-45.511719 201.347656-45.511719s138.25 15.3125 201.347656 45.511719c10.417969 4.988281 17.152344 15.632812 17.152344 27.117187v137.371094c0 16.542969-13.457031 30-30 30zm0 0" fill="#efedee"/><path d="m127.5 90.394531c0-14.058593 4.480469-27.410156 12.351562-38.402343-29.183593 7.476562-57.632812 17.828124-85.199218 31.019531-10.417969 4.988281-17.152344 15.632812-17.152344 27.117187v137.371094c0 16.542969 13.457031 30 30 30h70.695312c-6.753906-10.355469-10.695312-22.714844-10.695312-36zm0 0" fill="#d4d4d5"/><path d="m337.746094 287.957031-5.644532 13.898438c-.632812 1.566406-6.675781 16.613281-13.941406 40.148437h-47.160156v-49.503906h-30v49.503906h-47.160156c-7.265625-23.53125-13.308594-38.582031-13.941406-40.148437l-5.644532-13.898438-27.792968 11.289063 5.640624 13.898437c.371094.914063 35.460938 75.746094 38.664063 176.679688.261719 8.167969 6.90625 14.675781 15.078125 14.675781 8.429688 0 15.222656-6.917969 15.082031-15.347656l-.003906-.167969h20.078125v.515625c0 8.285156 6.714844 15 15 15s15-6.714844 15-15v-.515625h20.078125c0 .042969 0 .09375-.003906.144531-.140625 8.441406 6.664062 15.371094 15.109375 15.371094 8.144531 0 14.789062-6.460938 15.09375-14.597656 3.472656-92.246094 38.253906-175.851563 38.621094-176.757813l5.644531-13.898437zm-96.746094 179.027344h-21.714844c-1.085937-12.265625-2.628906-24.320313-4.488281-35.984375h26.203125zm0-65.984375h-31.789062c-2.164063-10.207031-4.488282-19.917969-6.847657-28.996094h38.636719zm51.714844 65.984375h-21.714844v-35.984375h26.203125c-1.859375 11.664062-3.402344 23.71875-4.488281 35.984375zm10.074218-65.984375h-31.789062v-28.996094h38.636719c-2.359375 9.078125-4.683594 18.789063-6.847657 28.996094zm0 0" fill="#efedee"/><path d="m141.472656 247.5c-16.542968 0-30 13.457031-30 30s13.457032 30 30 30h120v-60zm0 0" fill="#d34459"/><path d="m391.472656 277.5c0-16.542969-13.460937-30-30-30h-100c-16.542968 0-30 13.457031-30 30s13.457032 30 30 30h100c16.539063 0 30-13.457031 30-30zm0 0" fill="#ea5b70"/><path d="m197 166.5h-10c-4.140625 0-7.5 3.359375-7.5 7.5s3.359375 7.5 7.5 7.5h10c4.140625 0 7.5-3.359375 7.5-7.5s-3.359375-7.5-7.5-7.5zm0 0" fill="#d4d4d5"/><path d="m325 166.5h-10c-4.140625 0-7.5 3.359375-7.5 7.5s3.359375 7.5 7.5 7.5h10c4.140625 0 7.5-3.359375 7.5-7.5s-3.359375-7.5-7.5-7.5zm0 0" fill="#d4d4d5"/><path d="m163.5 225h185c8.269531 0 15-6.730469 15-15v-115c0-8.269531-6.730469-15-15-15h-185c-8.269531 0-15 6.730469-15 15v115c0 8.269531 6.730469 15 15 15zm0-130h185l.011719 115s-.003907 0-.011719 0h-185zm0 0"/><path d="m481.910156 53.953125c-2.664062-1.773437-5.480468-3.378906-8.375-4.765625-68.1875-32.636719-141.378906-49.1875-217.535156-49.1875-54.0625 0-107.269531 8.507812-158.144531 25.289062-3.933594 1.300782-6.070313 5.539063-4.773438 9.472657 1.300781 3.933593 5.539063 6.070312 9.472657 4.773437 49.355468-16.28125 100.980468-24.535156 153.445312-24.535156 73.894531 0 144.90625 16.054688 211.058594 47.71875 2.257812 1.082031 4.453125 2.328125 6.53125 3.714844 14.65625 9.78125 23.410156 26.117187 23.410156 43.695312v137.371094c0 28.949219-23.550781 52.5-52.5 52.5h-53.050781c3.28125-4.363281 5.636719-9.460938 6.765625-15h46.285156c20.679688 0 37.5-16.820312 37.5-37.5v-137.371094c0-14.355468-8.40625-27.652344-21.414062-33.882812-64.117188-30.6875-132.949219-46.246094-204.585938-46.246094s-140.46875 15.558594-204.582031 46.246094c-13.011719 6.230468-21.417969 19.527344-21.417969 33.882812v137.371094c0 20.679688 16.820312 37.5 37.5 37.5h37.226562c1.128907 5.539062 3.480469 10.636719 6.765626 15h-43.992188c-28.949219 0-52.5-23.550781-52.5-52.5v-137.371094c0-20.097656 11.753906-38.707031 29.941406-47.410156 9.761719-4.671875 19.804688-9.074219 29.851563-13.082031 3.847656-1.535157 5.722656-5.898438 4.191406-9.742188-1.535156-3.847656-5.898437-5.722656-9.746094-4.191406-10.359375 4.132813-20.710937 8.667969-30.773437 13.484375-23.367188 11.183594-38.464844 35.105469-38.464844 60.941406v137.371094c0 37.21875 30.28125 67.5 67.5 67.5h77.261719l.394531.96875c.019531.050781.097656.234375.238281.542969 3.5625 7.894531 34.902344 79.855469 37.875 173.550781.390625 12.300781 10.304688 21.9375 22.574219 21.9375 9.980469 0 18.472656-6.515625 21.449219-15.515625h7.316406c2.945313 8.996094 11.421875 15.515625 21.390625 15.515625s18.445312-6.519531 21.390625-15.515625h7.324219c2.980468 9 11.476562 15.515625 21.46875 15.515625 12.207031 0 22.128906-9.582031 22.589844-21.816406.109374-2.914063.253906-5.890625.429687-8.851563.246094-4.136719-2.90625-7.6875-7.042969-7.933593-4.125-.246094-7.683594 2.90625-7.929687 7.039062-.183594 3.070312-.335938 6.160156-.449219 9.179688-.152344 4.140624-3.492188 7.382812-7.597656 7.382812-4.195313 0-7.609375-3.414062-7.609375-7.609375l.003906-.324219c.046875-4.171875-3.328125-7.582031-7.5-7.582031h-20.078125c-4.140625 0-7.5 3.355469-7.5 7.5v.515625c0 4.136719-3.363281 7.5-7.5 7.5s-7.5-3.363281-7.5-7.5v-.515625c0-4.144531-3.359375-7.5-7.5-7.5h-20.078125c-4.195313 0-7.570313 3.441406-7.5 7.628906l.003906.292969c0 4.1875-3.402343 7.59375-7.582031 7.59375-4.121094 0-7.449219-3.257812-7.582031-7.414062-2.746094-86.53125-28.230469-153.578126-37.160157-174.585938h15.777344c2.59375 7.101562 6.019532 16.988281 9.796875 29.214844.96875 3.144531 3.875 5.289062 7.164063 5.289062h47.160156c4.140625 0 7.5-3.359375 7.5-7.5v-27.003906h15v27.003906c0 4.140625 3.359375 7.5 7.5 7.5h47.160156c3.289063 0 6.195313-2.144531 7.164063-5.289062 3.777343-12.230469 7.203125-22.117188 9.796875-29.214844h15.964844c-6.425782 16.554688-25.902344 70.453125-34.023438 135.070312-.515625 4.109376 2.398438 7.859376 6.507812 8.375.316407.042969.632813.0625.945313.0625 3.722656 0 6.953125-2.773437 7.429687-6.566406 9.152344-72.808594 33.820313-133.34375 34.902344-135.976562l.390625-.964844h77.261719c37.21875 0 67.5-30.277344 67.5-67.5v-137.371094c0-22.605468-11.246094-43.605468-30.089844-56.175781zm-436.910156 193.546875v-137.371094c0-8.613281 5.0625-16.601562 12.894531-20.351562 62.074219-29.710938 128.726563-44.777344 198.105469-44.777344s136.03125 15.066406 198.105469 44.777344c7.832031 3.75 12.894531 11.738281 12.894531 20.351562v137.371094c0 12.40625-10.09375 22.5-22.5 22.5h-46.285156c-3.484375-17.097656-18.632813-30-36.742188-30h-220c-18.113281 0-33.261718 12.902344-36.746094 30h-37.226562c-12.40625 0-22.5-10.09375-22.5-22.5zm73.972656 30c0-12.40625 10.089844-22.5 22.5-22.5h220c12.40625 0 22.5 10.09375 22.5 22.5 0 11.410156-8.714844 22.078125-22.5 22.5-66.507812 0-152.890625 0-220 0-12.410156 0-22.5-10.09375-22.5-22.5zm114.527344 57.003906h-34.148438c-2.203124-6.9375-4.589843-14.027344-6.53125-19.503906h40.679688zm45 0v-19.503906h40.683594c-2.121094 5.988281-4.375 12.699219-6.535156 19.503906zm0 0"/><path d="m241 423.5h-26.203125c-2.195313 0-4.28125.960938-5.707031 2.632812-1.425782 1.667969-2.046875 3.878907-1.703125 6.046876 1.921875 12.058593 3.414062 23.992187 4.425781 35.464843.34375 3.871094 3.585938 6.839844 7.472656 6.839844h21.714844c4.140625 0 7.5-3.359375 7.5-7.5v-35.984375c0-4.140625-3.359375-7.5-7.5-7.5zm-7.5 35.984375h-7.398438c-.707031-6.886719-1.570312-13.902344-2.585937-20.984375h9.984375zm0 0"/><path d="m248.5 372.003906c0-4.144531-3.359375-7.5-7.5-7.5h-38.636719c-2.324219 0-4.511719 1.074219-5.933593 2.910156-1.421876 1.835938-1.910157 4.226563-1.328126 6.472657 2.492188 9.597656 4.769532 19.246093 6.769532 28.671875.644531 3.03125 3.066406 5.308594 6.035156 5.828125.425781.074219.859375.113281 1.304688.113281h31.789062c4.140625 0 7.5-3.355469 7.5-7.5zm-15 21.496094h-18.242188c-1.03125-4.640625-2.121093-9.3125-3.269531-13.996094h21.511719zm0 0"/><path d="m310.128906 402.554688c1.996094-9.425782 4.273438-19.070313 6.769532-28.667969.582031-2.246094.09375-4.636719-1.328126-6.472657-.175781-.230468-.367187-.449218-.566406-.652343-1.40625-1.4375-3.335937-2.257813-5.367187-2.257813h-38.636719c-4.140625 0-7.5 3.355469-7.5 7.5v28.996094c0 4.140625 3.359375 7.5 7.5 7.5h31.789062c3.542969 0 6.605469-2.480469 7.339844-5.945312zm-13.386718-9.054688h-18.242188v-13.996094h21.511719c-1.148438 4.683594-2.238281 9.355469-3.269531 13.996094zm0 0"/><path d="m297.203125 423.5h-26.203125c-4.140625 0-7.5 3.359375-7.5 7.5v35.984375c0 4.140625 3.359375 7.5 7.5 7.5h21.714844c3.886718 0 7.128906-2.96875 7.472656-6.839844 1.011719-11.472656 2.5-23.40625 4.425781-35.464843.34375-2.167969-.277343-4.378907-1.703125-6.046876-1.425781-1.671874-3.511718-2.632812-5.707031-2.632812zm-11.304687 35.984375h-7.398438v-20.984375h9.984375c-1.015625 7.082031-1.878906 14.097656-2.585937 20.984375zm0 0"/><path d="m192 133.5c-4.140625 0-7.5 3.359375-7.5 7.5v10c0 4.140625 3.359375 7.5 7.5 7.5s7.5-3.359375 7.5-7.5v-10c0-4.140625-3.359375-7.5-7.5-7.5zm0 0"/><path d="m320 133.5c-4.140625 0-7.5 3.359375-7.5 7.5v10c0 4.140625 3.359375 7.5 7.5 7.5s7.5-3.359375 7.5-7.5v-10c0-4.140625-3.359375-7.5-7.5-7.5zm0 0"/><path d="m275.734375 162.234375c-3.738281-1.789063-8.214844-.207031-10 3.53125-1.667969 3.484375-5.292969 5.734375-9.234375 5.734375s-7.566406-2.25-9.234375-5.734375c-1.785156-3.738281-6.265625-5.320313-10-3.53125-3.738281 1.785156-5.320313 6.265625-3.53125 10 4.144531 8.667969 13.078125 14.265625 22.765625 14.265625s18.621094-5.597656 22.765625-14.265625c1.789063-3.734375.207031-8.214844-3.53125-10zm0 0"/></svg>